<?xml version="1.0" encoding="UTF-8"?>
<svg width="97px" height="96px" viewBox="0 0 97 96" version="1.1" xmlns="http://www.w3.org/2000/svg" xmlns:xlink="http://www.w3.org/1999/xlink">
    <!-- Generator: Sketch 63.1 (92452) - https://sketch.com -->
    <title>covid_v5</title>
    <desc>Created with Sketch.</desc>
    <g id="Page-1" stroke="none" stroke-width="1" fill="none" fill-rule="evenodd">
        <g id="covid_v5" transform="translate(1.000000, 1.000000)">
            <path d="M47.748,0 C21.832,0 0.75,21.084 0.75,47 C0.75,72.916 21.832,94 47.748,94 C73.664,94 94.75,72.916 94.75,47 C94.75,21.084 73.664,0 47.748,0 Z" id="Shape" stroke="#F16521" stroke-width="2"></path>
            <g id="493370" transform="translate(41.000000, 13.000000)" fill="#F16521" fill-rule="nonzero">
                <path d="M15.18102,0.23958 C15.3615,0.0156 15.67002,-0.0612 15.9324,0.05142 L15.9324,0.05142 L24.89238,3.89142 C25.1292,3.99252 25.2814201,4.22418 25.2814201,4.4802 L25.2814201,4.4802 L25.2814201,7.52916 C25.2814201,8.0565 25.07406,8.54544 24.69648,8.90898 C24.34062,9.25332 23.85294,9.45042 23.36016,9.45042 C23.06196,9.45042 22.77396,9.3813 22.50258,9.24564 L22.50258,9.24564 L22.4318737,9.21008569 C21.9607459,10.4046939 20.8175204,13.0515319 18.78672,16.33554 C16.19472,20.52882 12.77328,21.55278 12.08466,21.72048 L12.08466,21.72048 L7.6866,24.35856 C7.20402,24.64782 6.6741,24.78606 6.15186,24.78606 C5.18676,24.78606 4.24338,24.31758 3.67122,23.45616 C3.31026,22.91472 3.13746,22.28754 3.17076,21.65394 C3.07992,21.59502 3.00312,21.51054 2.95062,21.4056 L2.95062,21.4056 L0.37908,16.26258 C-0.1137,15.27954 -0.06888,14.12886 0.49686,13.18548 L0.49686,13.18548 L3.15414,8.7567 C3.52404,8.13972 4.10004,7.65972 4.77462,7.40628 L4.77462,7.40628 L12.8030238,4.39547565 C12.6467822,4.30656391 12.5351506,4.1547888 12.49554,3.97716 C12.4533,3.78774 12.49938,3.59058 12.621,3.43956 L12.621,3.43956 Z M14.36316,5.17902 L5.22396,8.60556 C4.8195,8.7579 4.4739,9.04458 4.25118,9.4158 L4.25118,9.4158 L1.5939,13.84458 C1.25346,14.41038 1.22784,15.10026 1.52352,15.69036 L1.52352,15.69036 L3.7149,20.07438 C3.93504,19.76334 4.21668,19.4958 4.54818,19.2846 C5.05764,18.96072 5.50944,18.6753 5.91138,18.4257 C5.73342,18.15948 5.53758,17.9457 5.4288,17.91882 C5.07552,17.91882 4.80288,17.6334 4.80288,17.28012 C4.80288,16.1985 3.7392,15.2001 3.72894,15.19116 C3.53568,15.012 3.47166,14.73294 3.56766,14.48718 C3.66366,14.24142 3.8979,14.08014 4.1616,14.08014 C4.6902,14.02002 7.1478,12.6312 7.3731,12.08208 C7.3731,11.83632 7.50876,11.652 7.73148,11.54574 C7.80444,11.50986 7.88124,11.49324 7.9593,11.49324 C8.11674,11.49324 8.27418,11.55852 8.40348,11.66094 C8.41752,11.67246 9.85116,12.80016 11.84154,12.80016 C12.10008,12.80016 12.33432,12.95634 12.4329,13.19568 C12.53274,13.43508 12.47772,13.71024 12.29466,13.8933 C11.15166,15.03636 9.98556,16.91028 9.92028,17.3109 C9.91902,17.66418 9.63486,17.9202 9.28158,17.9202 C9.29436,17.9343 8.6736,18.17496 5.23422,20.36502 C4.84506,20.61204 4.57884,20.99736 4.48284,21.4479 C4.3881,21.89976 4.47642,22.36056 4.73244,22.74582 C5.23932,23.50614 6.24666,23.7327 7.02618,23.26296 L7.02618,23.26296 L11.5113,20.57238 C11.574,20.53524 11.64438,20.50836 11.71608,20.493 C11.74932,20.48664 15.17208,19.74804 17.69622,15.66486 C19.72632,12.38166 20.85654,9.71796 21.279,8.63628 L21.279,8.63628 L14.36316,5.17902 Z M8.21526,13.07028 C7.55094,13.8447 6.2415,14.60502 5.2623,15.02484 C5.58486,15.47664 5.92536,16.09362 6.04056,16.7925 C6.45396,17.00628 6.78168,17.40564 7.0044,17.75382 C7.91448,17.20596 8.43414,16.92696 8.74902,16.78614 C9.02424,16.02198 9.78708,14.87766 10.53462,13.95222 C9.5298,13.75506 8.72598,13.3698 8.21526,13.07028 Z M15.87738,1.41972 L14.11608,3.6213 L14.6776843,3.90203235 L14.68824,3.90678 L22.36824,7.74678 C22.371426,7.74837267 22.3745935,7.74998873 22.3777424,7.75162788 L23.07606,8.10132 C23.32182,8.22546 23.61624,8.1717 23.8095,7.98738 C23.89656,7.9029 24.00156,7.75446 24.00156,7.52916 L24.00156,7.52916 L24.00156,4.90134 L15.87738,1.41972 Z" id="Combined-Shape"></path>
                <path d="M8.45334,22.94034 C8.2434,22.74834 7.93368,22.71636 7.69302,22.86354 L7.02744,23.26164 C6.26838,23.71602 5.22264,23.47794 4.7337,22.74324 C4.66968,22.64724 4.6185,22.5474 4.57626,22.44498 C4.44186,22.11984 4.06812,21.96498 3.74172,22.09812 C2.05338,22.7919 0.96156,24.41874 0.96156,26.24022 C0.96156,28.7106 2.97114,30.72024 5.44158,30.72024 C7.91202,30.72024 9.9216,28.71066 9.92286,26.24022 C9.92286,24.99474 9.38646,23.79282 8.45334,22.94034 Z M5.44152,29.43894 C3.6777,29.43894 2.24154,28.00278 2.24154,26.23896 C2.24154,25.12794 2.80986,24.11928 3.72762,23.53944 C4.59804,24.75546 6.39132,25.13562 7.6854,24.35862 L7.91196,24.22296 C8.38554,24.79386 8.64156,25.494 8.64156,26.23896 C8.64156,28.00278 7.20534,29.43894 5.44152,29.43894 Z" id="Shape"></path>
            </g>
            <g id="1609415" transform="translate(29.000000, 44.000000)" fill="#F16521" fill-rule="nonzero">
                <path d="M29.6901719,32.3452888 C29.8828359,32.3460821 30.0680352,32.2707227 30.2048906,32.1349336 L35.6410742,26.7136796 C35.7811289,26.5793125 35.8625312,26.3948242 35.8675079,26.2007383 L35.8675079,1.16898438 C35.8579102,0.754507858 35.5273242,0.419300804 35.1128477,0.404015625 L6.19084375,0.404015625 C5.99569143,0.410769554 5.81084768,0.493949196 5.67648045,0.635425804 L0.240296875,6.06805464 C0.09953125,6.2066875 0.018484375,6.39473045 0.013507858,6.59201563 L0.013507858,31.6234141 C0.027015625,32.0293594 0.362222679,32.3499921 0.768167946,32.3452888 L29.6901719,32.3452888 Z M1.46950786,7.32001563 L28.9515079,7.32001563 L28.9515079,30.8890156 L1.46950786,30.8890156 L1.46950786,7.32001563 Z M30.4075079,29.8659766 L30.4075079,6.89345313 L34.4115079,2.92642188 L34.4115079,25.8989454 L30.4075079,29.8659766 Z M6.4926367,1.86001563 L11.7283359,1.86001563 L24.1530352,1.86001563 L33.3554102,1.86001563 L29.3883789,5.86401563 L2.52560545,5.86401563 L6.4926367,1.86001563 Z" id="Shape"></path>
                <g id="2750343" transform="translate(8.000000, 10.000000)" stroke="#F16521" stroke-width="0.3">
                    <path d="M8.38891409,1.85 C8.68269708,1.85 8.9492559,1.97130106 9.14226397,2.16763831 C9.34066577,2.36946233 9.4612182,2.65059502 9.45307252,2.95977374 L9.45307252,2.95977374 L9.01897388,4.0623193 L9.01897388,4.58178241 C9.31080072,4.68671043 9.58399435,4.83598201 9.83087875,5.02512779 L9.83087875,5.02512779 L10.4223698,4.87094479 L10.8199534,4.25841824 C11.4231273,3.76731047 11.7053004,3.75649346 11.9721913,3.8292621 C12.2042032,3.89250297 12.4041053,4.03012524 12.5463178,4.22233131 L12.5463178,4.22233131 L13.0074021,5.01855441 C13.1535253,5.27598911 13.1832279,5.56988457 13.1129718,5.83661455 C13.0401345,6.11314383 12.8599756,6.36021996 12.5917907,6.50775985 L12.5917907,6.50775985 L11.4361723,6.67660261 L10.9958532,6.93520173 C11.0274341,7.10905615 11.044357,7.2858042 11.0463748,7.46383149 L11.0463748,7.46383149 L11.4806213,8.32326473 L12.1730818,8.36553444 C12.8909711,8.65060053 13.0420983,8.89231029 13.113498,9.16339029 C13.1753893,9.39837052 13.1580496,9.6421235 13.065958,9.8624832 L13.065958,9.8624832 L12.618607,10.6667378 C12.4764907,10.9171373 12.2467985,11.096036 11.9722787,11.1708635 C11.6874838,11.2484316 11.3895957,11.2046367 11.1372443,11.0469746 L11.1372443,11.0469746 L10.4156311,10.1133264 L9.97700154,9.85573643 C9.74126781,10.0606022 9.47767986,10.2265496 9.19395631,10.3491439 L9.19395631,10.3491439 L9.02875278,10.9510499 L9.35312568,11.610958 C9.40762045,12.0782468 9.34497131,12.420827 9.21777674,12.6603901 C9.05866388,12.9600694 8.79887923,13.1111825 8.50456941,13.143669 L8.50456941,13.143669 L7.61116315,13.15 C7.31738016,13.15 7.05082134,13.0286989 6.85781327,12.8323617 C6.65941148,12.6305377 6.53885904,12.349405 6.54700472,12.0402263 L6.54700472,12.0402263 L6.98110336,10.9376807 L6.98110336,10.4182176 C6.68927652,10.3132896 6.41608289,10.164018 6.16919849,9.97487221 L6.16919849,9.97487221 L5.5777062,10.1290555 L5.17861589,10.7438841 C4.80791087,11.0258986 4.48526747,11.1425439 4.21797601,11.1514727 C3.88427065,11.16262 3.62572321,11.0124695 3.44977183,10.7722162 L3.44977183,10.7722162 L2.99259785,9.98144559 C2.84647469,9.72401089 2.81677207,9.43011543 2.88702821,9.16338545 C2.95986526,8.88685697 3.14002336,8.63978147 3.40820695,8.49224144 L3.40820695,8.49224144 L4.56382549,8.32335942 L5.00414632,8.06475925 C4.97256556,7.89091244 4.95564282,7.71418508 4.95362516,7.5361317 L4.95362516,7.5361317 L4.51938195,6.67677475 L3.8269182,6.63450484 C3.1090289,6.34943876 2.95790167,6.107729 2.88650202,5.836649 C2.82461068,5.60166876 2.8419504,5.35791579 2.93404197,5.13755609 L2.93404197,5.13755609 L3.38139303,4.33330152 C3.52350931,4.08290192 3.75320077,3.90400174 4.02773748,3.82918189 C4.312541,3.75156402 4.61043833,3.79535846 4.86279932,3.95307211 L4.86279932,3.95307211 L5.58440616,4.88667278 L6.02304238,5.14426668 C6.25880003,4.93939903 6.52239474,4.7734507 6.8061208,4.65085596 L6.8061208,4.65085596 L6.97132445,4.04895006 L6.64695157,3.389042 C6.59245679,2.92175317 6.65510593,2.57917301 6.7823005,2.33960987 C6.94141331,2.03993069 7.20119782,1.8888176 7.4955075,1.85633104 L7.4955075,1.85633104 Z M8.22540211,2.82913495 L7.50948287,3.15701531 L7.8663086,3.94507914 L7.61429516,5.32841853 C7.11330659,5.42078518 6.69603733,5.67748333 5.94225018,6.12825383 L4.95808967,5.51126735 L4.13823896,4.96527801 L4.05911955,5.76293325 L4.90695213,5.84248573 L5.9588239,6.75607535 C5.87411701,7.00043995 5.83238317,7.22694436 5.83685353,7.67298065 C5.84412672,7.87911511 5.85329424,8.14074666 5.79347435,8.6320974 L4.78982424,9.18312901 L3.90941414,9.63526486 L4.54847565,10.1034736 L5.03896423,9.39809877 L6.34694912,8.92652934 C6.67842093,9.32329518 7.10534655,9.56300258 7.86296549,10.0000136 L7.82984876,11.1716838 L7.77467514,12.1708258 L8.49059438,11.8429454 L8.13376864,11.0548816 L8.38578031,9.67155191 C8.8867681,9.57913373 9.30404088,9.32243776 10.0578298,8.87166594 L11.0419915,9.48869584 L11.8617926,10.0346728 L11.9408852,9.23702791 L11.0930479,9.15747499 L10.0411761,8.24388538 C10.1258832,7.99951942 10.167617,7.77302136 10.1631444,7.32693637 C10.1558697,7.12080897 10.1466998,6.85917166 10.2064818,6.36781789 L11.210305,5.81682435 L12.090697,5.36469818 L11.4516033,4.89648471 L10.961113,5.60186194 L9.65313526,6.0734288 C9.32160872,5.6766609 8.89473126,5.43699899 8.13711185,4.9999864 L8.17022848,3.82827705 L8.22540211,2.82913495 Z M8,5.58212953 C8.52079494,5.58212953 8.99320118,5.79736019 9.33530486,6.1453501 C9.67648928,6.49240492 9.88794776,6.97152455 9.88794776,7.49998036 C9.88794776,8.02843617 9.67648928,8.50755579 9.33530486,8.85461062 C8.99320118,9.20260052 8.52079494,9.41783119 8,9.41783119 C7.47920506,9.41783119 7.00679882,9.20260052 6.66469514,8.85461062 C6.32351072,8.50755579 6.11205224,8.02843617 6.11205224,7.49998036 C6.11205224,6.97152455 6.32351072,6.49240492 6.66469514,6.1453501 C7.00679882,5.79736019 7.47920506,5.58212953 8,5.58212953 Z M8,6.47141314 C7.72220795,6.47141314 7.47046928,6.58662326 7.28807481,6.772156 C7.10476107,6.95862382 6.99136816,7.21610871 6.99136816,7.49998036 C6.99136816,7.783852 7.10476107,8.04133689 7.28807481,8.22780471 C7.47046928,8.41333746 7.72220795,8.52854758 8,8.52854758 C8.27779205,8.52854758 8.52953072,8.41333746 8.71192519,8.22780471 C8.89523893,8.04133689 9.00863184,7.783852 9.00863184,7.49998036 C9.00863184,7.21610871 8.89523893,6.95862382 8.71192519,6.772156 C8.52953072,6.58662326 8.27779205,6.47141314 8,6.47141314 Z" id="Combined-Shape"></path>
                    <path d="M7.8309,-0.15 C10.5884974,-0.15 13.3047172,0.591871716 15.6798818,1.99458346 L15.6798818,1.99458346 L15.8118,5.75061795 C15.8118,8.35429937 15.0583146,10.8752137 13.6329748,13.0408399 C12.2438317,15.1514165 10.2959135,16.8159139 7.99981526,17.8543606 C5.36703682,16.8174709 3.41847977,15.1522287 2.0288242,13.0408385 C0.603485433,10.8752137 -0.15,8.35429937 -0.15,5.75061795 L-0.15,5.75061795 L-0.15,2.22512072 C2.35887839,0.590928609 5.07423266,-0.15 7.8309,-0.15 L7.8309,-0.15 Z M0.66975,2.54428781 L0.66975,5.75061795 C0.66975,8.17296065 1.37721047,10.4901946 2.63336198,12.4565063 C3.87827518,14.4052262 5.66212329,16.0093084 7.83053276,17.0293763 C10.0896303,15.9671083 11.9306629,14.2656025 13.1792049,11.7487134 C14.334031,9.42074274 14.9821936,6.3985566 14.9919385,2.5451283 C10.5537564,0.0496602004 5.10883407,0.0495093587 0.66975,2.54428781 Z" id="Shape"></path>
                </g>
                <rect id="Rectangle" x="11.5" y="3.3" width="12" height="1.3" rx="0.65"></rect>
            </g>
        </g>
    </g>
</svg>