<?xml version="1.0" encoding="UTF-8"?>
<svg width="97px" height="96px" viewBox="0 0 97 96" version="1.1" xmlns="http://www.w3.org/2000/svg" xmlns:xlink="http://www.w3.org/1999/xlink">
    <!-- Generator: Sketch 48.1 (47250) - http://www.bohemiancoding.com/sketch -->
    <title>Waec_Icon_Option_2</title>
    <desc>Created with Sketch.</desc>
    <defs></defs>
    <g id="remita_sprite_sheet" stroke="none" stroke-width="1" fill="none" fill-rule="evenodd" transform="translate(-292.000000, -714.000000)">
        <g id="Waec_Icon_Option_2" transform="translate(293.000000, 715.000000)">
            <path d="M47.748,0 C21.832,0 0.75,21.084 0.75,47 C0.75,72.916 21.832,94 47.748,94 C73.664,94 94.75,72.916 94.75,47 C94.75,21.084 73.664,0 47.748,0 Z" id="Shape" stroke="#F16521" stroke-width="2"></path>
            <g id="Group-11" transform="translate(24.000000, 25.000000)" fill="#F16521">
                <path d="M51.188,7.804 L48.959,5.478 C48.644,5.148 48.225,4.967 47.778,4.967 C47.333,4.967 46.914,5.148 46.597,5.478 L46.505,5.574 L46.505,4.012 C46.505,2.059 44.983,0.47 43.111,0.47 L3.469,0.47 C1.598,0.47 0.076,2.058 0.076,4.012 L0.076,39.988 C0.076,41.94 1.598,43.529 3.469,43.529 L43.112,43.529 C44.983,43.529 46.506,41.94 46.506,39.988 L46.506,15.154 L51.189,10.268 C51.838,9.589 51.838,8.483 51.188,7.804 Z M44.889,39.988 C44.889,41.01 44.092,41.842 43.112,41.842 L3.469,41.842 C2.489,41.842 1.692,41.011 1.692,39.988 L1.692,4.013 C1.692,2.99 2.489,2.158 3.469,2.158 L43.112,2.158 C44.092,2.158 44.889,2.99 44.889,4.013 L44.889,7.261 L24.679,28.352 L23.515,30.039 L21.053,35.549 L12.949,35.549 C12.503,35.549 12.142,35.926 12.142,36.391 C12.142,36.858 12.503,37.235 12.949,37.235 L21.568,37.235 L21.568,37.235 C21.683,37.235 21.799,37.21 21.909,37.156 L28.373,34.009 C28.457,33.967 28.535,33.91 28.602,33.841 L44.889,16.84 L44.889,39.988 L44.889,39.988 Z M25.102,30.479 L27.231,32.701 L23.239,34.645 L25.102,30.479 Z M28.462,31.6 L26.156,29.196 L45.191,9.33 L47.497,11.735 L28.462,31.6 Z M50.044,9.076 L48.64,10.542 L46.334,8.137 L47.739,6.671 C47.76,6.649 47.795,6.649 47.815,6.671 L50.044,8.997 C50.064,9.019 50.064,9.054 50.044,9.076 Z" id="Shape" stroke="#F16521" stroke-width="0.5" fill-rule="nonzero"></path>
                <path d="M7.778,19.358 C6.382,19.358 5.246,20.543 5.246,22 C5.246,23.456 6.382,24.642 7.778,24.642 C9.174,24.642 10.31,23.456 10.31,22 C10.31,20.543 9.174,19.358 7.778,19.358 Z M7.778,22.956 C7.273,22.956 6.862,22.526 6.862,22 C6.862,21.474 7.273,21.044 7.778,21.044 C8.283,21.044 8.694,21.474 8.694,22 C8.694,22.526 8.283,22.956 7.778,22.956 Z" id="Shape" fill-rule="nonzero"></path>
                <path d="M7.778,26.553 C6.382,26.553 5.246,27.739 5.246,29.195 C5.246,30.653 6.382,31.838 7.778,31.838 C9.174,31.838 10.31,30.653 10.31,29.195 C10.31,27.738 9.174,26.553 7.778,26.553 Z M7.778,30.15 C7.273,30.15 6.862,29.722 6.862,29.194 C6.862,28.668 7.273,28.239 7.778,28.239 C8.283,28.239 8.694,28.668 8.694,29.194 C8.693,29.723 8.283,30.15 7.778,30.15 Z" id="Shape" fill-rule="nonzero"></path>
                <path d="M7.778,33.748 C6.382,33.748 5.246,34.934 5.246,36.39 C5.246,37.847 6.382,39.032 7.778,39.032 C9.174,39.032 10.31,37.847 10.31,36.39 C10.31,34.934 9.174,33.748 7.778,33.748 Z M7.778,37.346 C7.273,37.346 6.862,36.917 6.862,36.39 C6.862,35.864 7.273,35.435 7.778,35.435 C8.283,35.435 8.694,35.864 8.694,36.39 C8.693,36.917 8.283,37.346 7.778,37.346 Z" id="Shape" fill-rule="nonzero"></path>
                <path d="M26.737,21.157 L12.948,21.157 C12.502,21.157 12.141,21.534 12.141,22 C12.141,22.466 12.502,22.843 12.948,22.843 L26.737,22.843 C27.184,22.843 27.545,22.466 27.545,22 C27.545,21.534 27.185,21.157 26.737,21.157 Z" id="Shape" stroke="#F16521" stroke-width="0.5" fill-rule="nonzero"></path>
                <path d="M24.324,28.354 L12.815,28.354 C12.443,28.354 12.141,28.731 12.141,29.196 C12.141,29.663 12.442,30.04 12.815,30.04 L24.324,30.04 C24.696,30.04 24.997,29.663 24.997,29.196 C24.997,28.73 24.696,28.354 24.324,28.354 Z" id="Shape" stroke="#F16521" stroke-width="0.5" fill-rule="nonzero"></path>
                <g id="Group" transform="translate(4.000000, 1.000000)">
                    <path d="M10.9921875,15 L8.57910156,15 L7.22558594,9.75 C7.17545548,9.56315011 7.09000711,9.1769235 6.96923828,8.59130859 C6.84846945,8.00569369 6.77897145,7.61263121 6.76074219,7.41210938 C6.7333983,7.65820436 6.66503961,8.05354545 6.55566406,8.59814453 C6.44628852,9.14274361 6.36197946,9.53124884 6.30273438,9.76367188 L4.95605469,15 L2.54980469,15 L0,5.00585938 L2.08496094,5.00585938 L3.36328125,10.4609375 C3.58658966,11.468104 3.74837189,12.3408166 3.84863281,13.0791016 C3.8759767,12.8193346 3.93863883,12.4171577 4.03662109,11.8725586 C4.13460335,11.3279595 4.22688759,10.9052749 4.31347656,10.6044922 L5.76953125,5.00585938 L7.77246094,5.00585938 L9.22851562,10.6044922 C9.29231803,10.8551445 9.37206983,11.2379532 9.46777344,11.7529297 C9.56347704,12.2679062 9.63639298,12.7099591 9.68652344,13.0791016 C9.73209658,12.723631 9.80501252,12.2804389 9.90527344,11.7495117 C10.0055344,11.2185846 10.0966793,10.7890641 10.1787109,10.4609375 L11.4501953,5.00585938 L13.5351562,5.00585938 L10.9921875,15 Z M19.3505859,15 L18.6259766,12.6210938 L14.9824219,12.6210938 L14.2578125,15 L11.9746094,15 L15.5019531,4.96484375 L18.0927734,4.96484375 L21.6337891,15 L19.3505859,15 Z M18.1201172,10.84375 C17.450192,8.68814026 17.0730798,7.46907693 16.9887695,7.18652344 C16.9044592,6.90396994 16.8440757,6.68066488 16.8076172,6.51660156 C16.6572258,7.09993781 16.2265661,8.5423062 15.515625,10.84375 L18.1201172,10.84375 Z M27.6474609,15 L21.8916016,15 L21.8916016,5.00585938 L27.6474609,5.00585938 L27.6474609,6.7421875 L24.0107422,6.7421875 L24.0107422,8.93652344 L27.3945312,8.93652344 L27.3945312,10.6728516 L24.0107422,10.6728516 L24.0107422,13.25 L27.6474609,13.25 L27.6474609,15 Z M32.9775391,6.62597656 C32.180009,6.62597656 31.5625022,6.92561549 31.125,7.52490234 C30.6874978,8.12418919 30.46875,8.95930454 30.46875,10.0302734 C30.46875,12.2588002 31.3050047,13.3730469 32.9775391,13.3730469 C33.6793655,13.3730469 34.5292919,13.1975929 35.5273438,12.8466797 L35.5273438,14.6240234 C34.7070271,14.965822 33.7910207,15.1367188 32.7792969,15.1367188 C31.3255136,15.1367188 30.2135455,14.6958052 29.4433594,13.8139648 C28.6731732,12.9321245 28.2880859,11.6663494 28.2880859,10.0166016 C28.2880859,8.97753387 28.4772117,8.06722396 28.8554688,7.28564453 C29.2337258,6.5040651 29.7771774,5.90478724 30.4858398,5.48779297 C31.1945022,5.0707987 32.0250603,4.86230469 32.9775391,4.86230469 C33.948247,4.86230469 34.9234977,5.09700286 35.9033203,5.56640625 L35.2197266,7.2890625 C34.8460268,7.11132724 34.470054,6.95638087 34.0917969,6.82421875 C33.7135398,6.69205663 33.3421242,6.62597656 32.9775391,6.62597656 Z" id="WAEC"></path>
                </g>
            </g>
        </g>
    </g>
</svg>